# xmcd
#
# Track frame offsets: 
#        182
#        41507
#        71582
#        88382
#        119357
#        129032
#        155132
#        177632
#        242507
#        263357
#
# Disc length: 4157 seconds
#
# Revision: 2
# Processed by: cddbd v1.5.2PL0 Copyright (c) Steve Scherf et al.
# Submitted via: ExactAudioCopy v0.99pb5
#
DISCID=84103b0a
DTITLE=Sergey Prokofiev - Prokofiev Piano Sonatas Nos. 2, 7 (Stalingra
DTITLE=d), and 8 (War Sonata 3)
DYEAR=1997
DGENRE=Sonata
TTITLE0=Piano Sonata No. 7 in B flat major Op. 83 (Stalingrad) - I. Al
TTITLE0=legro inquieto - Andantino
TTITLE1=Piano Sonata No. 7 in B flat major Op. 83 (Stalingrad) - II. A
TTITLE1=ndante caloroso
TTITLE2=Piano Sonata No. 7 in B flat major Op. 83 (Stalingrad) - III. 
TTITLE2=Precipitato
TTITLE3=Piano Sonata No. 2 in D minor Op. 14 - I. Allegro ma non tropp
TTITLE3=o
TTITLE4=Piano Sonata No. 2 in D minor Op. 14 - II. Scherzo: Allegro ma
TTITLE4=rcato
TTITLE5=Piano Sonata No. 2 in D minor Op. 14 - III. Andante
TTITLE6=Piano Sonata No. 2 in D minor Op. 14 - IV. Vivace - Moderato
TTITLE7=Piano Sonata No. 8 in B flat major Op. 84 (War Sonata 3) - I. 
TTITLE7=Andante dolce - Allegro moderato
TTITLE8=Piano Sonata No. 8 in B flat major Op. 84 (War Sonata 3) - II.
TTITLE8=Andante sognando
TTITLE9=Piano Sonata No. 8 in B flat major Op. 84 (War Sonata 3) - III
TTITLE9=Vivace - Allegro ben marcato - Andantino - Vivace come prima
EXTD=YEAR: 1997\nMikhail Pletnev
EXTT0=
EXTT1=
EXTT2=
EXTT3=
EXTT4=
EXTT5=
EXTT6=
EXTT7=
EXTT8=
EXTT9=
PLAYORDER=
